<svg width="200" height="200" viewBox="0 0 200 200" fill="none" xmlns="http://www.w3.org/2000/svg"><rect width="200" height="200" fill="white"/><path d="M70.1212 51.1965C75.0163 51.7757 79.666 53.6591 83.5841 56.6497C85.2523 57.9119 86.7691 59.3626 88.1044 60.973L88.743 61.7099L90.7086 59.9412C96.0644 55.5198 102.206 53.5547 109.085 54.2916C117.045 55.1268 123.187 59.1553 127.56 65.8366L127.756 66.1313C128.248 66.9664 128.248 66.9664 129.181 66.5735C145.101 60.0395 163.478 68.3913 169.079 84.7016C174.238 99.6856 167.408 116.045 153.307 122.628C149.248 124.528 144.817 125.502 140.335 125.477C138.687 125.484 137.042 125.336 135.421 125.035C134.586 124.888 134.586 124.888 134.144 125.576C130.753 130.931 125.987 134.37 119.797 135.696C115.35 136.674 110.708 136.227 106.53 134.419L106.383 134.321C105.498 133.928 105.646 133.878 105.252 134.714C104.41 136.561 103.337 138.294 102.059 139.872C97.9581 145.054 91.966 148.394 85.402 149.157L84.1242 149.304C83.1119 149.4 82.0946 149.432 81.078 149.403H80.292C74.838 149.206 70.1212 147.143 65.9445 143.753C62.8948 141.263 60.4857 138.079 58.9183 134.468C58.3285 133.141 58.3285 133.191 56.8547 133.387C49.3862 134.321 42.8511 132.159 37.3972 127.001C33.5418 123.388 31.0291 118.572 30.2728 113.343C30.2296 112.935 30.2132 112.525 30.2234 112.115C30.1143 110.479 30.1143 108.838 30.2234 107.202C30.4096 104.08 31.2996 101.04 32.8276 98.3099C34.676 94.7686 37.399 91.7583 40.7384 89.5652C41.4262 89.1232 41.4754 88.6319 41.2295 87.944C40.0464 84.7881 39.4633 81.4393 39.5099 78.0693C39.492 71.9205 41.5914 65.953 45.4553 61.1695C49.3358 56.237 54.8048 52.7999 60.9327 51.4422C61.9065 51.2612 62.8913 51.1463 63.8808 51.0983H65.0108C65.2565 51.0491 65.5514 51.1965 65.7972 51H68.2538C68.4996 51.1965 68.7941 51.0491 69.0398 51.0983H69.4329C69.6298 51.0983 69.8756 51.0491 70.1212 51.1965Z" fill="#139CD8"/></svg>