<svg width="200" height="200" viewBox="0 0 200 200" fill="none" xmlns="http://www.w3.org/2000/svg"><g clip-path="url(#clip0_2166_639)"><path d="M200 0H0V200H200V0Z" fill="white"/><path d="M170 100C170 61.3401 138.66 30 100 30C61.3401 30 30 61.3401 30 100C30 138.66 61.3401 170 100 170C138.66 170 170 138.66 170 100Z" fill="#6C47FF"/><path d="M126.758 59.2079C128.279 60.2268 128.409 62.3702 127.114 63.6649L115.994 74.7852C114.989 75.7902 113.43 75.949 112.165 75.3009C108.424 73.3846 104.185 72.3035 99.6936 72.3035C84.5664 72.3035 72.3035 84.5664 72.3035 99.6936C72.3035 104.185 73.3846 108.424 75.3009 112.165C75.949 113.43 75.7902 114.989 74.7852 115.994L63.6649 127.114C62.3702 128.409 60.2268 128.279 59.2079 126.758C54.0236 119.018 51 109.709 51 99.6936C51 72.8009 72.8009 51 99.6936 51C109.709 51 119.018 54.0236 126.758 59.2079Z" fill="white" fill-opacity="0.4"/><path d="M115 100C115 108.284 108.284 115 100 115C91.7157 115 85 108.284 85 100C85 91.7157 91.7157 85 100 85C108.284 85 115 91.7157 115 100Z" fill="white"/><path d="M127.124 136.176C128.405 137.487 128.276 139.657 126.771 140.688C119.115 145.939 109.907 149 100 149C90.0931 149 80.8847 145.939 73.2286 140.688C71.7239 139.657 71.5953 137.487 72.876 136.176L83.8758 124.915C84.87 123.897 86.4123 123.736 87.6636 124.393C91.3638 126.334 95.557 127.428 100 127.428C104.443 127.428 108.636 126.334 112.336 124.393C113.588 123.736 115.13 123.897 116.124 124.915L127.124 136.176Z" fill="white"/></g><defs><clipPath id="clip0_2166_639"><rect width="200" height="200" fill="white"/></clipPath></defs></svg>